# xmcd
#
# Track frame offsets:
#	150
#	14190
#	27624
#	40885
#	55631
#	74602
#	89185
#	102348
#	122114
#	138758
#	149714
#	164969
#	178764
#	193393
#	209443
#	226274
#	243196
#	260370
#
# Disc length: 3769 seconds
#
# Revision: 1
# Processed by: cddbd v1.5.2PL0 Copyright (c) Steve Scherf et al.
# Submitted via: audiograbber 1.82.02
#
DISCID=220eb712
DTITLE=Various Artist  - Country Radio - April 2016
DYEAR=2016
DGENRE=Country
TTITLE0=Chase Rice - Whisper
TTITLE1=Randy Rogers Band - Neon Blues
TTITLE2=David Ray - Light It Up
TTITLE3=Kristen Kelly - Fire
TTITLE4=Dan and Shay - From The Ground Up
TTITLE5=Tara Thompson - Someone To Take Your Place
TTITLE6=Eric Church - Record Year
TTITLE7=Reba McEntire - Just Like Them Horses
TTITLE8=LANco - Long Live Tonight
TTITLE9=A Thousand Horses - Southernality
TTITLE10=Clare Dunn - Tuxedo
TTITLE11=Brett Young - Sleep Without You
TTITLE12=LoCash - I Know Somebody
TTITLE13=Cam - Mayday
TTITLE14=Jordan Rager and Jason Aldean - Southern Boy
TTITLE15=Thomas Rhett - T-Shirt
TTITLE16=Brandy Clark - Girl Next Door
TTITLE17=Vince Gill (Ft. Little Big Town) - Take Me Down
EXTD=
EXTT0=
EXTT1=
EXTT2=
EXTT3=
EXTT4=
EXTT5=
EXTT6=
EXTT7=
EXTT8=
EXTT9=
EXTT10=
EXTT11=
EXTT12=
EXTT13=
EXTT14=
EXTT15=
EXTT16=
EXTT17=
PLAYORDER=
